<?xml version="1.0" encoding="UTF-8"?>
<svg width="512" height="512" viewBox="0 0 512 512" fill="none" xmlns="http://www.w3.org/2000/svg">
  <rect width="512" height="512" rx="256" fill="url(#paint0_linear)"/>
  <path d="M256 128C185.307 128 128 185.307 128 256C128 326.693 185.307 384 256 384C326.693 384 384 326.693 384 256C384 185.307 326.693 128 256 128ZM331.313 234.687L256 160C250.625 154.625 241.375 154.625 236 160L160.687 234.687C155.312 240.062 155.312 249.312 160.687 254.687C166.062 260.062 175.312 260.062 180.687 254.687L232 203.375V320C232 328 238 336 248 336C256 336 264 330 264 320V203.375L315.313 254.687C317.938 257.312 321.375 258.687 324.813 258.687C328.25 258.687 331.688 257.312 334.313 254.687C339.688 249.312 339.688 240.062 334.313 234.687H331.313Z" fill="white"/>
  <defs>
    <linearGradient id="paint0_linear" x1="0" y1="0" x2="512" y2="512" gradientUnits="userSpaceOnUse">
      <stop stop-color="#2563EB"/>
      <stop offset="1" stop-color="#3B82F6"/>
    </linearGradient>
  </defs>
</svg>
