<?xml version="1.0" encoding="UTF-8"?>
<svg width="800" height="600" viewBox="0 0 800 600" fill="none" xmlns="http://www.w3.org/2000/svg">
  <rect width="800" height="600" rx="20" fill="#F8FAFC"/>
  <rect x="100" y="100" width="600" height="400" rx="16" fill="white" stroke="#E5E7EB" stroke-width="2"/>
  
  <!-- Left Device -->
  <rect x="150" y="200" width="180" height="240" rx="12" fill="#1E40AF"/>
  <rect x="160" y="220" width="160" height="180" rx="4" fill="white"/>
  <circle cx="240" cy="420" r="10" fill="white"/>
  
  <!-- Right Device -->
  <rect x="470" y="200" width="180" height="240" rx="12" fill="#1E40AF"/>
  <rect x="480" y="220" width="160" height="180" rx="4" fill="white"/>
  <circle cx="560" cy="420" r="10" fill="white"/>
  
  <!-- Connection Line -->
  <path d="M330 300 L470 300" stroke="#3B82F6" stroke-width="4" stroke-dasharray="8 8"/>
  
  <!-- File Icon Left -->
  <rect x="200" y="260" width="80" height="100" rx="4" fill="#DBEAFE"/>
  <rect x="210" y="280" width="60" height="8" rx="2" fill="#60A5FA"/>
  <rect x="210" y="300" width="60" height="8" rx="2" fill="#60A5FA"/>
  <rect x="210" y="320" width="40" height="8" rx="2" fill="#60A5FA"/>
  
  <!-- File Icon Right -->
  <rect x="520" y="260" width="80" height="100" rx="4" fill="#DBEAFE"/>
  <rect x="530" y="280" width="60" height="8" rx="2" fill="#60A5FA"/>
  <rect x="530" y="300" width="60" height="8" rx="2" fill="#60A5FA"/>
  <rect x="530" y="320" width="40" height="8" rx="2" fill="#60A5FA"/>
  
  <!-- Arrow -->
  <path d="M350 300 L450 300M450 300 L430 290M450 300 L430 310" stroke="#3B82F6" stroke-width="4" stroke-linecap="round" stroke-linejoin="round"/>
  
  <!-- Lock Icons -->
  <circle cx="400" cy="270" r="15" fill="#10B981"/>
  <rect x="393" y="268" width="14" height="10" rx="2" fill="white"/>
  <rect x="397" y="262" width="6" height="8" rx="2" fill="white"/>
  
  <!-- Decorative Elements -->
  <circle cx="150" cy="150" r="30" fill="#DBEAFE" fill-opacity="0.6"/>
  <circle cx="650" cy="450" r="40" fill="#D1FAE5" fill-opacity="0.6"/>
  <circle cx="400" cy="500" r="20" fill="#DBEAFE" fill-opacity="0.6"/>
  <circle cx="700" cy="200" r="25" fill="#D1FAE5" fill-opacity="0.6"/>
  <circle cx="100" cy="400" r="35" fill="#DBEAFE" fill-opacity="0.6"/>
</svg>
